<svg width="102" height="17" viewBox="0 0 102 17" fill="none" xmlns="http://www.w3.org/2000/svg">
<path d="M100.85 7.54095C100.999 7.69632 101.002 7.95093 100.856 8.10965L94.2797 15.2671C94.2068 15.3464 94.0872 15.3478 94.0125 15.2701V15.2701C93.9378 15.1924 93.9363 15.0651 94.0092 14.9858L100.85 7.54095V7.54095Z" fill="#CCCCCC"/>
<path d="M101.12 7.82155C100.975 7.98064 100.735 7.98395 100.586 7.82893L93.8324 0.8403C93.7575 0.762789 93.7557 0.635466 93.8285 0.555917V0.555917C93.9012 0.476369 94.0209 0.474717 94.0958 0.552228L101.12 7.82155V7.82155Z" fill="#CCCCCC"/>
<rect x="101.031" y="7.92969" width="100" height="0.530961" rx="0.26548" transform="rotate(179.35 101.031 7.92969)" fill="#CCCCCC"/>
</svg>
