<svg width="25" height="15" viewBox="0 0 25 15" fill="none" xmlns="http://www.w3.org/2000/svg">
<path d="M0.267785 7.53561C0.119891 7.38771 0.119891 7.14793 0.267784 7.00004L6.93718 0.330647C7.01112 0.2567 7.13101 0.2567 7.20496 0.330647V0.330647C7.27891 0.404593 7.27891 0.524485 7.20496 0.598431L0.267785 7.53561V7.53561Z" fill="black"/>
<path d="M-3.48227e-05 7.26844C0.147494 7.12019 0.387276 7.1196 0.535532 7.26712L7.22132 13.9201C7.29545 13.9938 7.29574 14.1137 7.22198 14.1879V14.1879C7.14821 14.262 7.02832 14.2623 6.95419 14.1885L-3.48227e-05 7.26844V7.26844Z" fill="black"/>
<rect y="7" width="25" height="0.5" rx="0.25" fill="black"/>
</svg>
