<svg width="27" height="15" viewBox="0 0 27 15" fill="none" xmlns="http://www.w3.org/2000/svg">
<path d="M25.8544 6.99528C26.004 7.14149 26.0067 7.38125 25.8605 7.53081L19.2672 14.2754C19.1941 14.3502 19.0742 14.3516 18.9994 14.2785V14.2785C18.9247 14.2054 18.9233 14.0855 18.9964 14.0107L25.8544 6.99528V6.99528Z" fill="black"/>
<path d="M26.1254 7.25931C25.9796 7.40923 25.7398 7.41254 25.5899 7.2667L18.829 0.69002C18.7541 0.617101 18.7524 0.497222 18.8253 0.422261V0.422261C18.8983 0.347301 19.0181 0.345646 19.0931 0.418564L26.1254 7.25931V7.25931Z" fill="black"/>
<rect x="26.0359" y="7.36133" width="25" height="0.5" rx="0.25" transform="rotate(179.35 26.0359 7.36133)" fill="black"/>
</svg>
